<svg width="48" height="48" viewBox="0 0 48 48" fill="none" xmlns="http://www.w3.org/2000/svg">
<rect width="48" height="48" rx="5" fill="#8B09D5"/>
<path d="M25.708 14.9023C24.8584 17.1094 24.0234 19.1846 23.2031 21.1279C22.3926 23.0713 21.5723 24.9561 20.7422 26.7822C21.5137 26.1572 22.3047 25.4932 23.1152 24.79C23.9258 24.0771 24.7314 23.3447 25.5322 22.5928C26.333 21.8311 27.1143 21.0547 27.876 20.2637C28.6475 19.4629 29.3701 18.667 30.0439 17.876C30.7275 17.0752 31.3525 16.2891 31.9189 15.5176C32.4854 14.7363 32.9736 13.9795 33.3838 13.2471C33.6279 13.4229 33.8965 13.6279 34.1895 13.8623C34.4824 14.0967 34.7803 14.3457 35.083 14.6094C35.3857 14.8633 35.6787 15.1172 35.9619 15.3711C36.2451 15.6152 36.499 15.8301 36.7236 16.0156C35.7764 17.0312 34.8193 18.0176 33.8525 18.9746C32.8857 19.9219 31.8359 20.8691 30.7031 21.8164C29.5801 22.7637 28.3398 23.7256 26.9824 24.7021C25.625 25.6689 24.0869 26.6797 22.3682 27.7344C23.6377 29.9512 24.7949 31.875 25.8398 33.5059C26.8945 35.127 27.9004 36.5137 28.8574 37.666C28.7598 37.7051 28.5547 37.7979 28.2422 37.9443C27.9297 38.1006 27.5781 38.2715 27.1875 38.457C26.7969 38.6523 26.4014 38.8428 26.001 39.0283C25.6104 39.2139 25.293 39.3604 25.0488 39.4678C24.4336 38.1885 23.7305 36.5625 22.9395 34.5898C22.1582 32.6172 21.3086 30.2686 20.3906 27.5439C19.6094 29.2334 18.8037 30.9033 17.9736 32.5537C17.1533 34.2041 16.2842 35.8984 15.3662 37.6367C14.9365 37.2949 14.5215 36.9922 14.1211 36.7285C13.7207 36.4746 13.3838 36.25 13.1104 36.0547C13.54 35.2051 14.0088 34.2383 14.5166 33.1543C15.0244 32.0605 15.5469 30.8789 16.084 29.6094C16.6309 28.3301 17.1826 26.9824 17.7393 25.5664C18.3057 24.1406 18.8623 22.6709 19.4092 21.1572C19.9561 19.6436 20.4834 18.1055 20.9912 16.543C21.5088 14.9707 21.9922 13.4033 22.4414 11.8408C22.7246 12.1143 23.0176 12.3877 23.3203 12.6611C23.6328 12.9248 23.9355 13.1885 24.2285 13.4521C24.5215 13.7061 24.7949 13.96 25.0488 14.2139C25.3125 14.458 25.5322 14.6875 25.708 14.9023Z" fill="white"/>
<path d="M16.7547 19.5858L20.649 23.3972L25.4773 20.8713L23.0558 25.7528L26.9501 29.5642L21.5593 28.7697L19.1378 33.6512L18.2275 28.2787L12.8367 27.4842L17.665 24.9583L16.7547 19.5858Z" fill="#F9CA0E"/>
</svg>
